<svg width="32" height="13" viewBox="0 0 32 13" fill="none" xmlns="http://www.w3.org/2000/svg">
<path d="M31.4218 1.88663C30.7113 1.94382 30.0072 1.93747 29.3284 2.06455C27.8946 2.32508 26.7464 3.13207 25.8836 4.26948C25.0082 5.42595 24.2596 6.68409 23.4349 7.88504C22.7752 8.83818 22.1535 9.82944 21.4049 10.7063C19.064 13.4259 15.0674 13.3688 12.7075 10.5729C11.7242 9.41006 10.9692 8.10744 10.1763 6.82388C9.49746 5.7246 8.80598 4.63802 7.88613 3.72301C6.58563 2.42039 5.03139 1.80403 3.19167 1.95018C3.07748 1.95653 2.96329 1.95018 2.81738 1.95018C3.04576 1.41006 3.40736 0.997039 3.86412 0.666618C5.11386 -0.229331 6.80132 -0.216623 8.14622 0.679326C9.23102 1.40371 10.0177 2.40768 10.7345 3.4752C11.629 4.80323 12.4664 6.1821 13.3926 7.49108C13.8557 8.14557 14.4076 8.76828 15.023 9.28933C16.4123 10.4522 18.0617 10.3696 19.4193 9.16225C20.4152 8.28536 21.1194 7.17972 21.8426 6.08679C22.661 4.84771 23.4666 3.58957 24.3421 2.38862C25.0653 1.39736 25.9598 0.577659 27.1651 0.177341C28.7574 -0.343707 30.5527 0.323489 31.352 1.75319C31.3901 1.80403 31.4091 1.86122 31.4218 1.88663Z" fill="#D70036"/>
<path d="M17.1228 0C19.0323 0 20.5612 1.53137 20.5549 3.444C20.5485 5.33757 19.0197 6.85623 17.1228 6.85623C15.2387 6.85623 13.7099 5.31851 13.7099 3.42494C13.7035 1.52502 15.2324 0 17.1228 0Z" fill="#0D2240"/>
<path d="M28.1992 12.6952C26.3024 12.6952 24.7862 11.1829 24.7735 9.2766C24.7608 7.38938 26.296 5.8453 28.1802 5.83895C30.077 5.83259 31.6249 7.37668 31.6249 9.2766C31.6312 11.1638 30.0897 12.6952 28.1992 12.6952ZM29.4933 9.27024C29.4933 8.55221 28.9287 7.98668 28.2119 7.98668C27.4697 7.98668 26.8924 8.54586 26.886 9.27024C26.8797 9.98192 27.476 10.5856 28.1865 10.5856C28.9161 10.5792 29.4997 9.99463 29.4933 9.27024Z" fill="#0D2240"/>
<path d="M9.4721 9.25789C9.47845 11.1705 7.97495 12.6955 6.07814 12.6955C4.19401 12.7019 2.69052 11.1959 2.63977 9.3532C2.59537 7.51683 4.06714 5.85837 6.04008 5.84566C7.93689 5.83295 9.46576 7.35797 9.4721 9.25789ZM6.06545 7.98704C5.32322 7.98704 4.75861 8.54622 4.75861 9.27695C4.75861 9.99498 5.3486 10.5859 6.06545 10.5796C6.78231 10.5732 7.37229 9.97592 7.36594 9.25789C7.35326 8.55257 6.77597 7.98704 6.06545 7.98704Z" fill="#0D2240"/>
</svg>
