<svg width="128" height="40" viewBox="0 0 128 40" fill="none" xmlns="http://www.w3.org/2000/svg">
<g clip-path="url(#clip0_7616_108262)">
<path d="M41.4635 7.0977C39.573 7.59968 37.8031 7.34551 36.0712 6.61477C35.2402 6.26529 34.0539 5.49643 33.6986 5.07069C34.1998 5.22319 34.7073 5.42017 35.2402 5.5282C36.8578 5.86497 38.4311 5.59174 39.9663 5.05163C42.1296 4.29547 44.0581 3.10087 45.8598 1.70929C46.5513 1.17554 47.211 0.597299 47.9342 0C47.5472 1.7919 47.173 3.54567 46.7796 5.35663C48.226 5.0834 49.4377 4.42891 50.5352 3.52661C51.6263 2.62431 52.5145 1.54408 53.2504 0.305004C53.7071 0.533757 54.1449 0.756156 54.608 0.984909C54.3605 1.46783 54.1131 1.93169 53.8848 2.40191C52.9839 4.28276 52.4637 6.27164 52.0387 8.305C51.4677 11.05 50.8651 13.7951 50.2688 16.5338C50.2624 16.5719 50.2434 16.61 50.2307 16.6672C48.7399 16.6672 47.2491 16.6672 45.7139 16.6672C46.5132 13.0326 47.2935 9.41064 48.0674 5.80143C47.617 5.69976 47.2047 5.60445 46.7606 5.50278C46.6274 6.10008 46.4878 6.7228 46.3483 7.34551C45.6885 10.3638 45.0351 13.3884 44.3753 16.4067C44.3436 16.5465 44.3182 16.6608 44.1216 16.6608C42.58 16.6545 41.0384 16.6545 39.4905 16.6545C39.4588 16.6545 39.4335 16.6354 39.3764 16.6227C40.0742 13.471 40.7593 10.3193 41.4635 7.0977Z" fill="#0D2240"/>
<path d="M11.4316 12.1875C10.4293 12.1875 9.48403 12.1875 8.49439 12.1875C8.67202 11.3296 8.84964 10.4972 9.02093 9.65846C11.698 9.65846 14.3561 9.65846 17.0396 9.65846C16.7985 10.7895 16.5701 11.9015 16.3354 13.0135C16.1451 13.9031 15.9548 14.7863 15.7771 15.6759C15.7264 15.9237 15.6249 16.0318 15.3584 16.0826C12.7448 16.6164 10.1121 16.9468 7.44131 16.9722C5.96953 16.9849 4.51045 16.8769 3.12114 16.3241C1.2053 15.5616 0.399628 14.0683 0.539193 12.0667C0.653383 10.4527 1.09745 8.95314 2.06172 7.63781C3.15921 6.13185 4.69442 5.25497 6.45801 4.7784C8.27235 4.28912 10.1184 4.20016 11.9835 4.31454C13.1698 4.38443 14.3371 4.51152 15.4473 4.96267C16.3544 5.33122 17.103 5.88404 17.325 6.90072C17.4139 7.32645 17.3885 7.7776 17.4139 8.24146C15.5932 8.24146 13.8486 8.24146 12.066 8.24146C11.9899 7.7649 11.7995 7.29468 11.3111 7.11041C10.8543 6.9452 10.3531 6.81176 9.87735 6.82447C7.84732 6.88801 6.34382 8.20969 5.89975 10.3066C5.77922 10.8912 5.69675 11.5075 5.7475 12.0921C5.86803 13.4901 6.59758 14.2335 7.99957 14.3924C8.93846 14.5004 9.87735 14.4305 10.7845 14.1255C10.9812 14.062 11.07 13.9603 11.1017 13.7506C11.1905 13.2486 11.3111 12.7466 11.4316 12.1875Z" fill="#0D2240"/>
<path d="M59.499 16.972C57.7418 16.972 56.3398 16.8512 55.0076 16.2984C53.1869 15.5423 52.2543 14.1824 52.2988 12.2063C52.3622 9.56291 53.3645 7.36434 55.5532 5.79484C56.7521 4.93701 58.1224 4.5494 59.5688 4.39055C60.9898 4.23805 62.4109 4.20627 63.8319 4.39055C64.7771 4.51128 65.697 4.73368 66.5471 5.18483C68.0061 5.96005 68.742 7.20548 68.7674 8.83217C68.7928 10.6558 68.2853 12.3397 67.1751 13.8012C66.1411 15.1674 64.701 15.9362 63.096 16.4382C61.8209 16.8385 60.5014 16.9847 59.499 16.972ZM63.5591 9.51843C63.5464 9.27696 63.5464 9.11811 63.5337 8.96561C63.4513 7.97434 62.8486 7.24996 61.9034 7.08475C60.8186 6.88777 59.8353 7.14194 59.0423 7.92351C57.8179 9.13082 57.4246 10.6749 57.5388 12.3334C57.6149 13.4644 58.3381 14.1316 59.4356 14.2269C60.5585 14.3286 61.5227 13.96 62.265 13.1022C63.1594 12.0474 63.483 10.7829 63.5591 9.51843Z" fill="#0D2240"/>
<path d="M24.4366 16.9719C22.9331 16.9656 21.4423 16.8385 20.0466 16.1967C18.4353 15.4532 17.5599 14.1824 17.5662 12.4032C17.5725 9.62004 18.6066 7.32616 20.9411 5.71218C22.1084 4.91154 23.4343 4.543 24.8236 4.3905C26.2446 4.23799 27.6656 4.20622 29.0866 4.38414C29.9684 4.49852 30.8312 4.6955 31.6369 5.08946C33.1721 5.83926 33.9968 7.0847 34.0285 8.78764C34.0666 10.7638 33.4956 12.5684 32.2078 14.0871C31.1421 15.3452 29.7147 16.0505 28.1604 16.4953C26.9424 16.8512 25.699 16.9846 24.4366 16.9719ZM22.7618 11.8313C22.7618 11.9139 22.7618 12.0029 22.7618 12.0855C22.7999 13.153 23.3835 13.9536 24.3034 14.1506C25.4326 14.3921 26.4666 14.157 27.285 13.3309C28.5284 12.0728 28.9471 10.4906 28.7568 8.76222C28.6553 7.82179 28.0082 7.20543 27.12 7.06563C25.8893 6.87501 24.8363 7.2372 24.0242 8.19034C23.1361 9.23243 22.8506 10.5033 22.7618 11.8313Z" fill="#0D2240"/>
<path d="M82.5082 16.6413C80.8334 16.6413 79.165 16.6413 77.4585 16.6413C77.4775 16.2791 77.4902 15.936 77.5029 15.5928C77.5346 14.843 77.5853 14.0932 77.6044 13.3434C77.6171 12.6572 77.357 12.3585 76.6718 12.3268C75.8725 12.295 75.0732 12.3204 74.2358 12.3204C74.0708 13.0893 73.8996 13.8836 73.7283 14.6778C73.6014 15.2624 73.4809 15.8534 73.3413 16.438C73.3223 16.5269 73.189 16.6477 73.1066 16.6477C71.5206 16.6604 69.9346 16.654 68.3487 16.654C68.317 16.654 68.2916 16.6349 68.2281 16.6159C69.0719 12.6127 69.922 8.61588 70.7784 4.58093C70.8926 4.58093 71.0068 4.58093 71.1209 4.58093C73.8996 4.58093 76.6782 4.57458 79.4568 4.58729C80.4147 4.59364 81.379 4.61906 82.3115 4.91136C82.6477 5.01302 82.9903 5.16553 83.2758 5.36251C84.0941 5.92804 84.1766 6.77315 84.0307 7.65639C83.7516 9.36568 82.6604 10.2934 81.0554 10.7255C80.9539 10.7509 80.8588 10.789 80.7573 10.8272C80.7636 10.8526 80.7636 10.8843 80.7699 10.9098C81.0237 10.9542 81.2775 10.9797 81.5249 11.0432C82.394 11.2592 82.7619 11.7612 82.7239 12.6445C82.6668 13.8899 82.6033 15.1353 82.5399 16.3808C82.5462 16.4634 82.5272 16.546 82.5082 16.6413ZM75.3586 7.00826C75.143 8.01223 74.9463 8.9463 74.7306 9.97569C75.7202 9.92486 76.6718 9.93757 77.6044 9.81683C78.2895 9.72152 78.7209 9.23224 78.8858 8.53328C79.0761 7.74535 78.8034 7.23066 78.004 7.13534C77.1413 7.02732 76.2595 7.04638 75.3586 7.00826Z" fill="#0D2240"/>
<path d="M89.4674 11.8825C89.3088 12.6259 89.1502 13.3439 88.9853 14.1064C91.231 14.1064 93.4387 14.1064 95.6907 14.1064C95.5067 14.9706 95.3355 15.7967 95.1578 16.6354C91.3008 16.6354 87.4501 16.6354 83.5422 16.6354C83.6374 16.1525 83.7326 15.6823 83.8277 15.2121C84.5636 11.7554 85.2995 8.29866 86.029 4.84194C86.0671 4.65132 86.1242 4.58142 86.3272 4.58142C90.0447 4.58778 93.7685 4.58778 97.486 4.58778C97.5304 4.58778 97.5685 4.59413 97.6383 4.60048C97.467 5.43289 97.2894 6.25259 97.1117 7.12312C96.9912 7.12312 96.8707 7.12312 96.7501 7.12312C94.7645 7.12312 92.7789 7.12947 90.7933 7.11677C90.5522 7.11677 90.4443 7.17395 90.3999 7.43448C90.2921 8.05719 90.1462 8.67356 90.0066 9.3344C92.0938 9.3344 94.1428 9.3344 96.2299 9.3344C96.0587 10.1605 95.9001 10.9484 95.7224 11.7236C95.7034 11.7935 95.5194 11.8761 95.4116 11.8761C93.5655 11.8825 91.7131 11.8825 89.8607 11.8825C89.7402 11.8825 89.626 11.8825 89.4674 11.8825Z" fill="#0D2240"/>
<path d="M127.797 6.15061C127.086 6.2078 126.382 6.20144 125.703 6.32853C124.27 6.58905 123.122 7.39604 122.259 8.53345C121.383 9.68993 120.635 10.9481 119.81 12.149C119.15 13.1022 118.529 14.0934 117.78 14.9703C115.439 17.6899 111.442 17.6327 109.083 14.8369C108.099 13.674 107.344 12.3714 106.551 11.0879C105.873 9.98858 105.181 8.902 104.261 7.98699C102.961 6.68437 101.407 6.06801 99.5668 6.21415C99.4526 6.22051 99.3384 6.21415 99.1925 6.21415C99.4209 5.67404 99.7825 5.26102 100.239 4.9306C101.489 4.03465 103.176 4.04735 104.521 4.9433C105.606 5.66769 106.393 6.67166 107.11 7.73917C108.004 9.06721 108.842 10.4461 109.768 11.7551C110.231 12.4095 110.783 13.0323 111.398 13.5533C112.787 14.7161 114.437 14.6335 115.794 13.4262C116.79 12.5493 117.495 11.4437 118.218 10.3508C119.036 9.11169 119.842 7.85355 120.717 6.6526C121.44 5.66133 122.335 4.84164 123.54 4.44132C125.133 3.92027 126.928 4.58747 127.727 6.01717C127.765 6.06801 127.784 6.12519 127.797 6.15061Z" fill="#D70036"/>
<path d="M33.5717 16.6286C34.2631 13.3879 34.9546 10.1663 35.6524 6.91296C37.0227 7.52297 38.4247 7.91694 39.9536 7.7962C39.7886 8.57142 39.6364 9.30216 39.4841 10.0329C39.0274 12.1552 38.5706 14.2775 38.1139 16.3999C38.0758 16.5651 38.0441 16.6667 37.8474 16.6667C36.4771 16.6604 35.1005 16.6604 33.7303 16.6604C33.6985 16.6604 33.6668 16.6477 33.5717 16.6286Z" fill="#0D2240"/>
<path d="M113.498 4.26398C115.407 4.26398 116.936 5.79535 116.93 7.70798C116.924 9.60155 115.395 11.1202 113.498 11.1202C111.614 11.1202 110.085 9.58248 110.085 7.68892C110.079 5.789 111.608 4.26398 113.498 4.26398Z" fill="#0D2240"/>
<path d="M124.574 16.9592C122.678 16.9592 121.161 15.4468 121.149 13.5406C121.136 11.6534 122.671 10.1093 124.555 10.1029C126.452 10.0966 128 11.6407 128 13.5406C128.006 15.4278 126.465 16.9592 124.574 16.9592ZM125.868 13.5342C125.868 12.8162 125.304 12.2507 124.587 12.2507C123.845 12.2507 123.267 12.8098 123.261 13.5342C123.255 14.2459 123.851 14.8495 124.562 14.8495C125.291 14.8432 125.875 14.2586 125.868 13.5342Z" fill="#0D2240"/>
<path d="M105.847 13.5219C105.854 15.4345 104.35 16.9595 102.453 16.9595C100.569 16.9659 99.0656 15.4599 99.0149 13.6172C98.9705 11.7808 100.442 10.1223 102.415 10.1096C104.312 10.0969 105.841 11.6219 105.847 13.5219ZM102.441 12.251C101.698 12.251 101.134 12.8102 101.134 13.5409C101.134 14.259 101.724 14.8499 102.441 14.8436C103.157 14.8372 103.747 14.2399 103.741 13.5219C103.728 12.8165 103.151 12.251 102.441 12.251Z" fill="#0D2240"/>
<path d="M88.5222 39.9487C88.4143 39.8216 88.3192 39.7136 88.2177 39.5929C88.9219 38.8367 89.0678 37.909 89.0804 36.9432C89.0868 36.3586 89.0804 35.7676 89.0804 35.1767C88.5032 35.7358 87.9512 36.276 87.3803 36.8351C87.2471 36.6763 87.1583 36.5683 87.0568 36.4475C88.2494 35.5706 89.1122 34.4523 89.7592 33.0861C88.8901 33.0861 88.0781 33.0861 87.2471 33.0861C87.2471 32.9273 87.2471 32.8065 87.2471 32.6413C87.6658 32.6413 88.0781 32.6413 88.4841 32.6413C88.833 32.6413 89.1883 32.6096 89.5309 32.6477C89.8988 32.6922 90.0637 32.5333 90.1526 32.2029C90.2223 31.9297 90.3302 31.6628 90.4253 31.3768C90.5713 31.4086 90.6981 31.434 90.8694 31.4721C90.7362 31.8598 90.6157 32.2283 90.4761 32.635C92.1318 32.635 93.7559 32.635 95.3989 32.635C95.3989 32.7875 95.3989 32.9082 95.3989 33.0798C95.2974 33.0798 95.1832 33.0798 95.0754 33.0798C93.5656 33.0798 92.0557 33.0861 90.5395 33.0734C90.3302 33.0734 90.2287 33.137 90.1399 33.3276C89.9876 33.6707 89.791 33.9948 89.6006 34.3633C91.1549 34.3633 92.6711 34.3633 94.2253 34.3633C94.238 34.4841 94.2507 34.5857 94.2507 34.6874C94.2507 36.2124 94.2507 37.7311 94.2507 39.2561C94.2507 39.6945 94.1428 39.8343 93.7051 39.8661C93.2928 39.8979 92.8804 39.8915 92.4681 39.8979C92.1636 39.9042 92.2397 39.631 92.1509 39.4785C92.5632 39.4785 92.9502 39.4849 93.3372 39.4785C93.8003 39.4721 93.8003 39.4721 93.8003 39.021C93.8003 38.7033 93.8003 38.3919 93.8003 38.0551C93.6861 38.0488 93.5909 38.0361 93.5021 38.0361C92.2524 38.0361 91.009 38.0424 89.7592 38.0297C89.5245 38.0297 89.442 38.0996 89.3976 38.3347C89.2644 38.9829 88.9599 39.5357 88.5222 39.9487ZM93.7749 36.4094C92.3412 36.4094 90.9455 36.4094 89.5436 36.4094C89.5436 36.8161 89.5436 37.191 89.5436 37.5659C90.9646 37.5659 92.3602 37.5659 93.7749 37.5659C93.7749 37.1783 93.7749 36.8034 93.7749 36.4094ZM93.7686 35.9582C93.7686 35.5579 93.7686 35.183 93.7686 34.8145C92.3475 34.8145 90.9519 34.8145 89.5499 34.8145C89.5499 35.2084 89.5499 35.5706 89.5499 35.9582C90.9582 35.9582 92.3475 35.9582 93.7686 35.9582Z" fill="#0D2240"/>
<path d="M105.689 31.8279C105.689 33.1623 105.689 34.465 105.689 35.8184C105.01 35.8184 104.337 35.8184 103.576 35.8184C103.804 36.3966 104.007 36.9113 104.242 37.4959C104.851 37.0766 105.409 36.6889 105.993 36.2886C106.076 36.3649 106.171 36.4538 106.323 36.5936C105.708 37.013 105.111 37.4197 104.502 37.8264C104.997 38.5507 105.631 39.1036 106.443 39.434C106.196 39.8915 106.196 39.8915 105.765 39.6437C104.553 38.9447 103.868 37.8518 103.411 36.5746C103.322 36.3331 103.284 35.9391 103.126 35.882C102.821 35.7676 102.447 35.8502 102.092 35.8502C102.092 36.9812 102.092 38.0869 102.092 39.2179C102.713 39.0654 103.31 38.9129 103.957 38.7477C103.963 38.9066 103.969 39.021 103.976 39.1544C103.17 39.3959 102.371 39.631 101.552 39.8724C101.495 39.7708 101.425 39.6564 101.362 39.542C101.394 39.5484 101.425 39.5484 101.451 39.5547C101.508 39.2878 101.622 39.0273 101.622 38.7604C101.635 36.5809 101.628 34.4078 101.628 32.2283C101.628 32.1012 101.628 31.9741 101.628 31.8279C102.992 31.8279 104.325 31.8279 105.689 31.8279ZM105.257 34.0074C104.185 34.0074 103.145 34.0074 102.104 34.0074C102.104 34.4904 102.104 34.9479 102.104 35.399C103.17 35.399 104.21 35.399 105.257 35.399C105.257 34.9288 105.257 34.484 105.257 34.0074ZM102.092 33.569C103.17 33.569 104.21 33.569 105.238 33.569C105.238 33.1115 105.238 32.6731 105.238 32.2346C104.172 32.2346 103.132 32.2346 102.092 32.2346C102.092 32.6921 102.092 33.1242 102.092 33.569Z" fill="#0D2240"/>
<path d="M60.3682 38.1822C61.1168 38.8367 61.9541 39.2561 62.874 39.5293C62.7091 39.9551 62.69 39.9614 62.2967 39.828C61.4466 39.5357 60.6917 39.0845 60.0129 38.4745C59.1629 39.129 58.2366 39.6183 57.1963 39.9296C57.1518 39.8598 57.1074 39.7962 57.063 39.7263C57.025 39.6628 56.9869 39.5992 56.9362 39.523C57.9321 39.2307 58.8393 38.8113 59.645 38.1695C59.3849 37.82 59.0994 37.5087 58.8901 37.1528C58.6109 36.6826 58.3699 36.1934 58.1351 35.6977C58.0463 35.5007 57.9702 35.3355 57.6974 35.38C57.6974 35.2402 57.6974 35.1195 57.6974 34.9479C58.3889 34.9479 59.0804 34.9479 59.7845 34.9479C59.7845 34.4015 59.7845 33.8995 59.7845 33.3594C59.0169 33.3594 58.262 33.3594 57.4817 33.3594C57.4817 33.2132 57.4817 33.1052 57.4817 32.9463C58.2366 32.9463 58.9979 32.9463 59.7972 32.9463C59.7972 32.3999 59.7972 31.8979 59.7972 31.3768C59.9558 31.3768 60.0764 31.3768 60.2477 31.3768C60.2477 31.7899 60.2667 32.1965 60.2413 32.6032C60.2286 32.8764 60.3301 32.94 60.5839 32.94C61.25 32.9273 61.9097 32.9336 62.5949 32.9336C62.5949 33.0734 62.5949 33.1878 62.5949 33.353C62.3792 33.353 62.1635 33.353 61.9478 33.353C61.472 33.353 60.9962 33.3594 60.5204 33.3466C60.3238 33.3403 60.235 33.3975 60.2413 33.6135C60.254 34.0456 60.2477 34.4777 60.2477 34.9098C60.9582 35.0115 61.6433 34.8399 62.3538 35.0242C61.9795 36.2887 61.2944 37.2926 60.3682 38.1822ZM58.4777 35.3927C58.8393 36.3586 59.3341 37.1719 60.0446 37.8582C60.8059 37.1465 61.3959 36.3713 61.7575 35.3927C60.6473 35.3927 59.6006 35.3927 58.4777 35.3927Z" fill="#0D2240"/>
<path d="M65.9571 31.7137C66.7818 31.7137 67.5621 31.7137 68.3804 31.7137C68.3868 31.8217 68.3995 31.9361 68.3995 32.0441C68.3995 34.4206 68.3995 36.8034 68.3995 39.1799C68.3995 39.6565 68.298 39.7645 67.8222 39.8217C67.6445 39.8408 67.4606 39.8281 67.2893 39.8535C66.9594 39.9043 66.8643 39.7264 66.8516 39.4277C67.1434 39.4277 67.4289 39.4214 67.708 39.4277C67.8856 39.4341 67.9808 39.3769 67.9808 39.1736C67.9744 38.2204 67.9808 37.2737 67.9808 36.2506C67.4986 36.5302 67.0609 36.7907 66.6105 37.0576C66.5407 36.9559 66.4709 36.8543 66.3758 36.7208C66.2933 37.2864 66.2426 37.8328 66.122 38.3539C66.0015 38.8813 65.8112 39.396 65.6399 39.9551C65.4623 39.8471 65.3481 39.7772 65.2275 39.701C65.9127 38.195 65.9698 36.6065 65.9698 35.0052C65.9571 33.925 65.9571 32.8384 65.9571 31.7137ZM66.3885 36.6509C66.8896 36.3904 67.3845 36.1362 67.8729 35.8757C67.9237 35.8503 67.9681 35.7613 67.9681 35.7042C67.9808 35.4119 67.9744 35.1259 67.9744 34.7828C67.8349 34.8717 67.7397 34.9353 67.6509 34.9925C67.2512 34.5667 66.8643 34.1537 66.4582 33.728C66.5471 33.6644 66.6359 33.5945 66.8008 33.4738C67.1751 33.8805 67.5494 34.2872 67.9491 34.7192C67.9491 33.8296 67.9491 32.9909 67.9491 32.1521C67.4225 32.1521 66.9214 32.1521 66.3885 32.1521C66.3885 33.6517 66.3885 35.1259 66.3885 36.6509Z" fill="#0D2240"/>
<path d="M28.7884 34.5857C27.9637 36.0408 27.0375 37.3244 25.7687 38.3538C25.7053 38.2839 25.6482 38.2204 25.5911 38.1632C25.5403 38.106 25.4959 38.0551 25.4388 37.9852C26.8345 36.8987 27.8432 35.5134 28.6425 33.8931C27.6846 33.8931 26.7711 33.8931 25.8322 33.8931C25.8258 33.7343 25.8195 33.6135 25.8131 33.4547C25.94 33.4483 26.0479 33.4356 26.162 33.4356C26.9233 33.4356 27.6846 33.4229 28.4458 33.442C28.744 33.4483 28.8518 33.3721 28.8391 33.0607C28.8138 32.5079 28.8328 31.9487 28.8328 31.3768C29.0041 31.3768 29.131 31.3768 29.2896 31.3768C29.2896 32.0504 29.2896 32.7112 29.2896 33.4229C29.6321 33.4229 29.9557 33.4229 30.2982 33.4229C30.2982 33.5945 30.2982 33.7215 30.2982 33.8804C29.9747 33.8804 29.6638 33.8804 29.2959 33.8804C29.2959 34.0202 29.2959 34.1346 29.2959 34.2426C29.2959 35.8502 29.2959 37.4578 29.2959 39.0591C29.2959 39.7263 29.1881 39.847 28.5283 39.9169C28.4458 39.9233 28.357 39.9296 28.2745 39.9296C27.9574 39.9296 27.6402 39.9296 27.3039 39.9296C27.2532 39.7835 27.1961 39.6374 27.139 39.4658C27.6021 39.4658 28.0462 39.4594 28.4902 39.4658C28.725 39.4658 28.8391 39.3895 28.8391 39.1354C28.8328 37.6739 28.8328 36.2188 28.8328 34.7573C28.8265 34.7319 28.8138 34.7001 28.7884 34.5857Z" fill="#0D2240"/>
<path d="M45.2063 34.0393C45.2063 33.4611 45.2063 32.94 45.2063 32.3999C44.8257 32.4635 44.4578 32.5079 44.1025 32.5969C43.8297 32.6668 43.7028 32.5905 43.6838 32.2919C44.223 32.1775 44.7623 32.0695 45.3015 31.9424C45.6504 31.8598 45.9993 31.7708 46.3292 31.6311C46.6337 31.504 46.7986 31.5802 46.9255 31.917C46.5829 32.0187 46.2531 32.1267 45.9105 32.2156C45.7456 32.2601 45.6694 32.33 45.6758 32.5143C45.6885 33.0099 45.6821 33.4992 45.6821 34.0202C46.196 34.0202 46.6718 34.0202 47.1666 34.0202C47.1666 34.1664 47.1666 34.2871 47.1666 34.4523C46.6844 34.4523 46.196 34.4523 45.7075 34.4523C45.6821 34.4841 45.6631 34.5159 45.6377 34.5476C46.1135 35.1831 46.5829 35.8121 47.0714 36.4666C46.9763 36.581 46.8811 36.6954 46.7796 36.8225C46.437 36.3014 46.1008 35.7931 45.7646 35.2911C45.7392 35.2975 45.7202 35.3038 45.6948 35.3102C45.6948 36.8288 45.6948 38.3538 45.6948 39.8979C45.5235 39.8979 45.3966 39.8979 45.2317 39.8979C45.2317 38.4237 45.2317 36.9623 45.2317 35.5008C44.7623 36.3967 44.3372 37.299 43.6775 38.0933C43.5886 37.9535 43.5125 37.8328 43.4237 37.7057C44.1977 36.7462 44.7432 35.6724 45.1683 34.4778C44.629 34.4778 44.1215 34.4778 43.5823 34.4778C43.576 34.3189 43.5696 34.1982 43.5633 34.0457C44.0962 34.0393 44.6354 34.0393 45.2063 34.0393Z" fill="#0D2240"/>
<path d="M7.78363 35.7678C7.78363 36.6511 7.78363 37.5155 7.78363 38.4052C5.93132 38.4052 4.09169 38.4052 2.23303 38.4052C2.23303 37.5345 2.23303 36.6639 2.23303 35.7678C4.06632 35.7678 5.91229 35.7678 7.78363 35.7678ZM5.2145 38.0684C5.944 38.0684 6.63545 38.0684 7.34593 38.0684C7.34593 37.7951 7.34593 37.5345 7.34593 37.274C6.62276 37.274 5.92497 37.274 5.2145 37.274C5.2145 37.5472 5.2145 37.8014 5.2145 38.0684ZM4.75142 37.274C4.0346 37.274 3.35584 37.274 2.67074 37.274C2.67074 37.5536 2.67074 37.8078 2.67074 38.0684C3.37487 38.0684 4.05997 38.0684 4.75142 38.0684C4.75142 37.7951 4.75142 37.5472 4.75142 37.274ZM7.34593 36.8863C7.34593 36.613 7.34593 36.3779 7.34593 36.1237C6.62911 36.1237 5.93132 36.1237 5.22084 36.1237C5.22084 36.3842 5.22084 36.6321 5.22084 36.8863C5.93766 36.8863 6.62911 36.8863 7.34593 36.8863ZM4.75142 36.13C4.0346 36.13 3.35584 36.13 2.67074 36.13C2.67074 36.3969 2.67074 36.6384 2.67074 36.8799C3.38121 36.8799 4.05997 36.8799 4.75142 36.8799C4.75142 36.6257 4.75142 36.3842 4.75142 36.13Z" fill="#0D2240"/>
<path d="M24.0877 39.9237C23.9037 39.9237 23.7895 39.9237 23.6309 39.9237C23.6309 38.297 23.6309 36.6831 23.6309 35.0627C23.6119 35.0627 23.5865 35.0564 23.5675 35.0564C23.3327 35.5774 23.1234 36.1112 22.857 36.6132C22.5905 37.1215 22.267 37.6044 21.9434 38.1382C21.8102 37.9539 21.7151 37.8332 21.6643 37.7633C22.0449 37.1151 22.4383 36.5178 22.7555 35.8761C23.0663 35.247 23.2947 34.5798 23.5865 33.8681C23.0029 33.8681 22.5144 33.8681 22.0005 33.8681C22.0005 33.7093 22.0005 33.5885 22.0005 33.4233C22.5271 33.4233 23.06 33.4233 23.6246 33.4233C23.6246 32.718 23.6246 32.0572 23.6246 31.3836C23.7832 31.3836 23.9037 31.3836 24.0623 31.3836C24.0623 32.0508 24.0623 32.7116 24.0623 33.4043C24.519 33.4043 24.9504 33.4043 25.4072 33.4043C25.4135 33.5568 25.4199 33.6838 25.4262 33.8491C24.9758 33.8491 24.5381 33.8491 24.0052 33.8491C24.1003 34.0524 24.1448 34.1985 24.2336 34.3129C24.6142 34.7958 25.0075 35.2661 25.3945 35.7426C25.6863 36.1048 25.6863 36.1048 25.3247 36.4416C24.9377 35.9015 24.5444 35.3677 24.1574 34.8276C24.1384 34.834 24.113 34.834 24.094 34.8403C24.0877 36.5178 24.0877 38.2081 24.0877 39.9237Z" fill="#0D2240"/>
<path d="M127.499 32.0193C127.499 32.1528 127.499 32.2608 127.499 32.3625C127.499 34.542 127.499 36.7215 127.499 38.901C127.499 39.0281 127.486 39.1552 127.48 39.2823C127.461 39.619 127.258 39.7842 126.947 39.8033C126.484 39.8287 126.021 39.8287 125.551 39.8287C125.374 39.8287 125.374 39.816 125.253 39.3649C125.697 39.3649 126.141 39.3712 126.579 39.3649C127.004 39.3522 127.023 39.3331 127.023 38.9137C127.023 36.874 127.023 34.8343 127.023 32.7882C127.023 32.6929 127.023 32.5976 127.023 32.4705C124.72 32.4705 122.436 32.4705 120.127 32.4705C120.127 32.3053 120.127 32.1782 120.127 32.0257C122.563 32.0193 125.012 32.0193 127.499 32.0193Z" fill="#0D2240"/>
<path d="M98.4249 31.7455C99.1989 31.7455 99.9475 31.7392 100.696 31.7519C100.969 31.7583 101.064 31.9108 100.956 32.1649C100.696 32.8067 100.436 33.4548 100.157 34.0903C100.074 34.2745 100.074 34.3953 100.214 34.5605C100.759 35.2023 101.058 35.9393 100.956 36.8035C100.874 37.4834 100.271 37.8837 99.6303 37.655C99.5288 37.6169 99.478 37.4326 99.3765 37.2674C99.6049 37.2674 99.7635 37.2674 99.9157 37.2674C100.315 37.261 100.474 37.1339 100.537 36.74C100.633 36.1681 100.455 35.6534 100.169 35.1705C100.119 35.0815 100.068 34.9735 99.9919 34.91C99.6049 34.5732 99.6112 34.2301 99.846 33.7853C100.1 33.296 100.265 32.7559 100.48 32.2094C99.9157 32.2094 99.4019 32.2094 98.85 32.2094C98.85 34.7702 98.85 37.3309 98.85 39.9108C98.6914 39.9108 98.5708 39.9108 98.4249 39.9108C98.4249 37.2102 98.4249 34.4969 98.4249 31.7455Z" fill="#0D2240"/>
<path d="M109.914 39.3718C109.857 39.2065 109.806 39.0731 109.768 38.9587C111.163 37.5732 112.089 35.8954 113.054 34.224C113.111 34.2494 113.174 34.2685 113.225 34.2939C113.307 34.332 113.396 34.3765 113.51 34.4337C112.667 35.9399 111.766 37.3953 110.618 38.7934C112.273 38.7045 113.853 38.6155 115.515 38.5265C115.065 37.8719 114.64 37.2682 114.195 36.6263C114.322 36.5691 114.443 36.5119 114.621 36.4293C115.337 37.4715 116.048 38.5011 116.771 39.5561C116.657 39.626 116.593 39.6705 116.524 39.7149C116.46 39.7531 116.397 39.7848 116.314 39.823C116.276 39.7658 116.232 39.7213 116.2 39.6705C115.781 38.9523 115.781 38.946 114.944 39.0032C113.415 39.1048 111.893 39.2065 110.364 39.3146C110.224 39.3146 110.079 39.3463 109.914 39.3718Z" fill="#0D2240"/>
<path d="M68.9387 40.0007C68.8118 39.81 68.742 39.6956 68.6469 39.5431C69.4588 39.2698 70.2201 38.933 70.9115 38.3992C70.2581 37.7382 69.795 36.9756 69.4398 36.143C69.3954 36.035 69.1797 35.9969 69.0021 35.9079C69.0021 35.8507 69.0021 35.7236 69.0021 35.5901C69.6238 35.4694 73.1635 35.5393 73.4108 35.6855C73.0746 36.7531 72.4657 37.6429 71.622 38.4182C72.2627 38.9648 72.9922 39.2953 73.7978 39.5304C73.69 39.6766 73.5948 39.7973 73.4997 39.9308C72.675 39.6893 71.9392 39.2889 71.3238 38.7678C70.5182 39.1809 69.7379 39.5876 68.9387 40.0007ZM69.8965 36.0159C70.0361 36.6388 70.7592 37.7128 71.2858 38.0878C71.8884 37.6556 72.6687 36.5625 72.7702 36.0159C71.8059 36.0159 70.8544 36.0159 69.8965 36.0159Z" fill="#0D2240"/>
<path d="M1.31952 32.629C1.25608 35.0881 1.51618 37.5472 0.310849 39.822C0.228379 39.7712 0.171284 39.7331 0.107846 39.695C0.0570947 39.6632 0 39.6251 0 39.6187C0.215691 38.9324 0.494821 38.278 0.615354 37.5917C0.767607 36.7148 0.812014 35.8125 0.856421 34.9166C0.894484 34.1477 0.862764 33.3725 0.862764 32.6036C0.862764 32.4892 0.862764 32.3749 0.862764 32.2287C2.10616 32.2287 3.31784 32.2287 4.56758 32.2287C4.47242 31.9428 4.38995 31.714 4.30748 31.4789C4.72617 31.2756 4.72617 31.2756 4.88477 31.7013C5.08777 32.2287 5.08777 32.2287 5.64603 32.2287C6.45805 32.2287 7.27006 32.2287 8.08207 32.2287C8.19626 32.2287 8.31045 32.2287 8.44367 32.2287C8.44367 32.3749 8.44367 32.4829 8.44367 32.6227C6.08376 32.629 3.72384 32.629 1.31952 32.629Z" fill="#0D2240"/>
<path d="M56.2002 31.3773C56.2002 32.0318 56.2002 32.6608 56.2002 33.328C56.5872 33.328 56.9424 33.328 57.304 33.328C57.304 33.4869 57.304 33.614 57.304 33.7665C56.9424 33.7665 56.5872 33.7665 56.2129 33.7665C56.2129 34.4908 56.2129 35.1835 56.2129 35.9142C56.5935 35.8062 56.9614 35.6982 57.3548 35.5901C57.3738 35.7426 57.3865 35.8634 57.3992 36.0032C57.0756 36.1048 56.7838 36.2192 56.4793 36.2955C56.2573 36.3526 56.1812 36.4543 56.1812 36.6894C56.1938 37.5536 56.1875 38.4241 56.1875 39.2883C56.1875 39.7204 56.0987 39.8284 55.6673 39.892C55.4706 39.9237 55.2676 39.9047 55.071 39.9301C54.7474 39.9809 54.6015 39.8411 54.5825 39.498C54.887 39.498 55.1852 39.5107 55.4833 39.4916C55.5721 39.4853 55.7244 39.39 55.7244 39.3264C55.7371 38.4114 55.7371 37.4901 55.7371 36.5369C55.3057 36.664 54.9187 36.7847 54.4937 36.9118C54.4429 36.7657 54.4049 36.6386 54.3541 36.4734C54.7601 36.3526 55.1535 36.2446 55.5341 36.1175C55.6166 36.0858 55.7307 35.9777 55.7307 35.8951C55.7434 35.2025 55.7371 34.5036 55.7371 33.7728C55.3057 33.7728 54.8997 33.7728 54.4747 33.7728C54.4747 33.6203 54.4747 33.4932 54.4747 33.3344C54.868 33.3344 55.274 33.3344 55.7244 33.3344C55.7244 32.6608 55.7244 32.0254 55.7244 31.3709C55.902 31.3773 56.0226 31.3773 56.2002 31.3773Z" fill="#0D2240"/>
<path d="M3.10832 23.7212C3.14639 23.7466 3.1781 23.772 3.21616 23.7847C3.93933 24.1279 4.15501 24.5219 4.05351 25.2973C3.97739 25.8947 3.49528 26.4031 2.81018 26.4667C2.14411 26.5238 1.46535 26.4794 0.761214 26.4794C0.75487 26.4095 0.742183 26.3078 0.742183 26.2061C0.742183 24.6808 0.748527 23.1619 0.73584 21.6367C0.73584 21.3443 0.830993 21.2744 1.09742 21.2871C1.63662 21.3125 2.17582 21.2871 2.70868 21.3316C3.36207 21.3952 3.69193 21.7002 3.79977 22.2468C3.93299 22.9458 3.78074 23.2827 3.17176 23.6449C3.14639 23.6576 3.1337 23.6894 3.10832 23.7212ZM1.12914 26.1489C1.65565 26.1489 2.15045 26.187 2.6389 26.1362C3.24788 26.079 3.66656 25.6278 3.69193 25.0939C3.72365 24.5664 3.40647 24.058 2.86727 23.969C2.30269 23.8737 1.71909 23.8928 1.12914 23.8546C1.12914 24.6618 1.12914 25.3863 1.12914 26.1489ZM1.12914 23.5051C1.65565 23.5051 2.13776 23.5305 2.61987 23.4987C3.1337 23.4606 3.43185 23.1174 3.46356 22.6344C3.48894 22.2023 3.25423 21.8146 2.81018 21.751C2.26463 21.6684 1.7064 21.6811 1.12914 21.6494C1.12914 22.304 1.12914 22.8886 1.12914 23.5051Z" fill="#D70036"/>
<path d="M83.136 35.6919C82.4636 35.6919 81.8546 35.6919 81.2202 35.6919C81.0109 37.3887 80.5478 38.9457 78.9429 39.9054C78.8351 39.791 78.7336 39.6893 78.613 39.5622C80.1228 38.7106 80.5732 37.3061 80.7381 35.6919C80.3321 35.6919 79.9452 35.6919 79.5455 35.6919C79.5455 35.533 79.5455 35.4122 79.5455 35.2661C80.8967 35.2661 82.2415 35.2661 83.6625 35.2661C83.5229 36.5435 83.4088 37.8145 83.2438 39.0728C83.1614 39.6702 82.9266 39.8228 82.3113 39.8291C82.0259 39.8291 81.7404 39.8291 81.4423 39.8291C81.3979 39.6766 81.3598 39.5495 81.3281 39.4287C81.6262 39.4287 81.9053 39.4287 82.1908 39.4287C82.5841 39.4351 82.7237 39.3652 82.7934 38.9775C82.9076 38.3484 82.9837 37.7065 83.0535 37.0646C83.0979 36.6197 83.1106 36.1685 83.136 35.6919Z" fill="#0D2240"/>
<path d="M14.2863 36.7411C14.2482 36.6394 14.2102 36.5441 14.1531 36.4043C14.4068 36.4043 14.6288 36.4043 14.8762 36.4043C14.8762 35.7306 14.8762 35.1014 14.8762 34.4024C14.4195 35.1396 13.9754 35.8196 13.2903 36.3407C13.2015 36.2454 13.1191 36.1564 13.0112 36.0484C13.7534 35.4828 14.2799 34.771 14.7113 33.913C14.2673 33.913 13.8613 33.913 13.4489 33.913C13.4489 33.7732 13.4489 33.6715 13.4489 33.538C13.9818 33.538 14.502 33.538 15.0285 33.538C15.0412 33.5126 15.0475 33.4808 15.0602 33.4554C14.6986 33.233 14.3434 33.0106 13.9691 32.7818C14.0516 32.642 14.1594 32.4386 14.3497 32.6038C14.8001 32.9788 15.0856 32.6991 15.3901 32.4068C15.4662 32.3369 15.5486 32.2733 15.6311 32.2034C15.6248 32.178 15.6121 32.1526 15.6057 32.1272C14.9524 32.1272 14.299 32.1272 13.6266 32.1272C13.6266 31.981 13.6266 31.8793 13.6266 31.7395C14.4449 31.7395 15.2568 31.7331 16.0688 31.7459C16.164 31.7459 16.2655 31.8348 16.4241 31.9175C15.9927 32.3242 15.6057 32.6928 15.2188 33.0614C15.3457 33.1949 15.4789 33.341 15.6184 33.4872C15.6057 33.519 15.5931 33.5444 15.5867 33.5762C15.9229 33.5762 16.2591 33.5762 16.6461 33.5762C16.4875 33.9702 16.3479 34.3007 16.2274 34.6375C16.1386 34.8917 15.999 34.9108 15.796 34.7519C15.8975 34.4977 15.999 34.2308 16.1069 33.9384C15.8404 33.9384 15.6057 33.9384 15.3139 33.9384C15.3139 34.1037 15.3139 34.2816 15.3139 34.4532C15.3139 35.0252 15.3139 35.5971 15.3139 36.1628C15.3139 36.614 15.2378 36.703 14.7938 36.7411C14.6352 36.7538 14.4639 36.7411 14.2863 36.7411Z" fill="#0D2240"/>
<path d="M125.094 38.1577C123.819 38.1577 122.563 38.1577 121.275 38.1577C121.263 38.3929 121.25 38.6089 121.237 38.8377C121.098 38.8377 120.977 38.8377 120.831 38.8377C120.831 37.6493 120.831 36.4609 120.831 35.2534C122.246 35.2534 123.661 35.2534 125.094 35.2534C125.094 36.213 125.094 37.1663 125.094 38.1577ZM121.275 37.7065C122.417 37.7065 123.527 37.7065 124.644 37.7065C124.644 37.0138 124.644 36.3465 124.644 35.6792C123.508 35.6792 122.398 35.6792 121.275 35.6792C121.275 36.3528 121.275 37.0138 121.275 37.7065Z" fill="#0D2240"/>
<path d="M50.3956 31.3768C50.5669 31.3768 50.6938 31.3768 50.846 31.3768C50.846 33.2386 50.846 35.0814 50.846 36.9495C51.252 36.886 51.6263 36.8288 52.0323 36.7716C52.0577 36.8987 52.0894 37.0258 52.1211 37.1783C51.6897 37.2545 51.2774 37.3244 50.8524 37.4007C50.8524 38.2394 50.8524 39.0591 50.8524 39.9042C50.7001 39.9042 50.5732 39.9042 50.4019 39.9042C50.4019 39.0972 50.4019 38.2903 50.4019 37.4578C49.2981 37.6294 48.2387 37.7883 47.1539 37.9598C47.1349 37.82 47.1158 37.693 47.0905 37.5341C48.1943 37.3625 49.2791 37.191 50.3956 37.0131C50.3956 35.1385 50.3956 33.2704 50.3956 31.3768Z" fill="#0D2240"/>
<path d="M117.418 24.083C117.418 25.5066 116.289 26.6569 114.881 26.6632C113.466 26.6696 112.293 25.5002 112.299 24.083C112.305 22.6912 113.46 21.5409 114.849 21.5345C116.257 21.5218 117.418 22.6721 117.418 24.083ZM112.692 24.0576C112.667 25.2841 113.644 26.3137 114.849 26.3391C116.004 26.3645 117.031 25.335 117.05 24.1275C117.076 22.9327 116.092 21.8968 114.9 21.8586C113.739 21.8205 112.718 22.8437 112.692 24.0576Z" fill="#D70036"/>
<path d="M65.2463 24.0954C65.2527 25.5063 64.1045 26.663 62.6962 26.663C61.2879 26.663 60.1334 25.5127 60.1334 24.1082C60.1334 22.6909 61.2753 21.5406 62.6835 21.5406C64.0918 21.5279 65.24 22.6782 65.2463 24.0954ZM60.5267 24.0827C60.5204 25.3284 61.4973 26.3452 62.6962 26.3389C63.8761 26.3389 64.8594 25.322 64.8594 24.1018C64.8594 22.8816 63.8825 21.8711 62.7026 21.8584C61.5227 21.8457 60.5331 22.8562 60.5267 24.0827Z" fill="#D70036"/>
<path d="M106.97 24.1209C106.963 25.5317 105.809 26.6693 104.394 26.663C103.005 26.6566 101.857 25.5063 101.857 24.1145C101.857 22.6846 103.011 21.5279 104.439 21.5406C105.841 21.5406 106.976 22.6973 106.97 24.1209ZM102.25 24.0954C102.244 25.3284 103.202 26.3198 104.401 26.3389C105.574 26.3579 106.577 25.3347 106.583 24.1209C106.589 22.8879 105.6 21.852 104.407 21.8584C103.221 21.8647 102.257 22.8625 102.25 24.0954Z" fill="#D70036"/>
<path d="M16.9381 26.5303C16.9381 24.9033 16.9381 23.3018 16.9381 21.6558C17.5154 21.6558 18.0863 21.6367 18.6636 21.6621C19.6849 21.7066 20.4905 22.2913 20.7379 23.1874C21.036 24.2678 20.8584 25.4626 19.9703 26.0536C19.6087 26.2951 19.152 26.4604 18.7206 26.5239C18.1434 26.5875 17.5471 26.5303 16.9381 26.5303ZM17.3124 26.2189C17.7818 26.2189 18.2132 26.2443 18.6382 26.2125C19.4819 26.149 20.2304 25.5134 20.408 24.6809C20.6237 23.6958 20.3953 22.8124 19.6087 22.2913C18.8919 21.821 18.099 21.9799 17.3124 21.9672C17.3124 23.4035 17.3124 24.7953 17.3124 26.2189Z" fill="#D70036"/>
<path d="M77.7821 39.924C77.6044 39.924 77.4776 39.924 77.3126 39.924C77.3126 38.094 77.3126 36.2767 77.3126 34.3704C76.913 34.8533 76.564 35.2663 76.1961 35.7111C76.0819 35.5523 75.9931 35.4252 75.8916 35.2854C76.7861 34.3768 77.4649 33.3283 78.0041 32.1845C78.0739 32.032 78.1627 31.8859 78.2071 31.7207C78.2959 31.3903 78.4735 31.3648 78.7844 31.5618C78.4926 32.1464 78.1944 32.7374 77.9153 33.3347C77.8392 33.4999 77.7757 33.6905 77.7757 33.8684C77.763 35.7493 77.7694 37.6301 77.7694 39.5173C77.7821 39.6444 77.7821 39.7715 77.7821 39.924Z" fill="#0D2240"/>
<path d="M34.2377 31.3709C34.4154 31.3709 34.5296 31.3709 34.6945 31.3709C34.6945 32.413 34.6945 33.4551 34.6945 34.529C35.2591 34.529 35.7793 34.529 36.3185 34.529C36.3185 34.6878 36.3185 34.8086 36.3185 34.9674C35.7983 34.9674 35.2718 34.9674 34.7135 34.9674C34.7135 36.6322 34.7135 38.2589 34.7135 39.911C34.5486 39.911 34.4281 39.911 34.2695 39.911C34.2695 38.2843 34.2695 36.6513 34.2695 34.9801C33.7302 34.9801 33.2291 34.9801 32.7152 34.9801C32.7152 34.8213 32.7152 34.6942 32.7152 34.5417C33.2164 34.5417 33.7048 34.5417 34.2441 34.5417C34.2377 33.4805 34.2377 32.4384 34.2377 31.3709Z" fill="#0D2240"/>
<path d="M17.6485 31.3709C17.8198 31.3709 17.9213 31.3709 18.0545 31.3709C18.0545 31.8603 18.0545 32.3433 18.0545 32.8644C18.4858 32.8644 18.8918 32.8644 19.3232 32.8644C19.3232 33.0106 19.3232 33.1186 19.3232 33.2648C18.9108 33.2648 18.5049 33.2648 18.0925 33.2648C18.0672 33.2902 18.0418 33.3156 18.0164 33.341C18.5366 34.1799 19.0567 35.0252 19.5959 35.8895C19.4945 35.9848 19.3993 36.0738 19.3041 36.1628C18.9108 35.4828 18.5239 34.8155 18.1433 34.1545C18.1242 34.1609 18.0989 34.1672 18.0798 34.1736C18.0798 35.1014 18.0798 36.0357 18.0798 36.9953C17.9339 37.0017 17.8261 37.008 17.6802 37.0144C17.6802 36.0611 17.6802 35.1269 17.6802 34.1863C17.6548 34.1799 17.6295 34.1672 17.6041 34.1609C17.2488 34.9108 16.9126 35.6798 16.2783 36.3026C16.1958 36.2009 16.1197 36.0992 16.0245 35.9848C16.7287 35.2286 17.1917 34.3197 17.5216 33.2775C17.1854 33.2775 16.8873 33.2775 16.5764 33.2775C16.5764 33.1377 16.5764 33.036 16.5764 32.8962C16.919 32.8962 17.2615 32.8962 17.6548 32.8962C17.6485 32.3814 17.6485 31.892 17.6485 31.3709Z" fill="#0D2240"/>
<path d="M100.119 25.5005C100.119 24.274 100.119 23.0538 100.119 21.7954C100.245 21.7954 100.347 21.7954 100.474 21.7954C100.474 23.3334 100.474 24.865 100.474 26.4729C99.2305 25.1828 98.0315 23.9308 96.7565 22.6153C96.7565 23.9816 96.7565 25.24 96.7565 26.5174C96.6169 26.5174 96.5218 26.5174 96.4012 26.5174C96.4012 24.9413 96.4012 23.3652 96.4012 21.7319C97.6382 23.0283 98.8372 24.2867 100.042 25.545C100.074 25.5323 100.093 25.5196 100.119 25.5005Z" fill="#D70036"/>
<path d="M39.5413 31.3709C39.6999 31.3709 39.8014 31.3709 39.9473 31.3709C39.9473 33.1501 39.9473 34.9356 39.9473 36.7593C40.3723 36.6894 40.7466 36.6322 41.1209 36.5687C41.2795 36.9436 41.2795 36.9563 40.9052 37.0262C40.8608 37.0325 40.8227 37.0453 40.7847 37.058C40.5182 37.1215 40.1503 37.0961 40.0234 37.2613C39.8902 37.4329 39.9727 37.7887 39.9727 38.0619C39.9727 38.6719 39.9727 39.2819 39.9727 39.911C39.8331 39.911 39.7189 39.911 39.5603 39.911C39.5603 39.0468 39.5603 38.1763 39.5603 37.274C38.4882 37.471 37.4668 37.6553 36.4265 37.8459C36.3947 37.7061 36.363 37.5917 36.325 37.4329C36.9784 37.3121 37.6064 37.1978 38.2345 37.0834C38.577 37.0198 38.9196 36.9372 39.2622 36.9055C39.5223 36.8864 39.5603 36.7593 39.5603 36.5369C39.554 34.9484 39.554 33.3661 39.554 31.7776C39.5413 31.6569 39.5413 31.5298 39.5413 31.3709Z" fill="#0D2240"/>
<path d="M41.5522 21.7446C42.8019 23.0538 43.9945 24.2994 45.2505 25.6213C45.2505 24.2867 45.2505 23.0474 45.2505 21.7954C45.3901 21.7954 45.4916 21.7954 45.6058 21.7954C45.6058 23.3397 45.6058 24.865 45.6058 26.4792C44.3624 25.1891 43.1635 23.9435 41.9075 22.6407C41.9075 23.9816 41.9075 25.24 41.9075 26.5237C41.7743 26.5301 41.6728 26.5364 41.5459 26.5428C41.5522 24.9603 41.5522 23.3906 41.5522 21.7446Z" fill="#D70036"/>
<path d="M28.2617 26.4538C27.0247 25.17 25.8384 23.9308 24.5824 22.6279C24.5824 23.988 24.5824 25.2463 24.5824 26.5237C24.4492 26.5301 24.3604 26.5364 24.2399 26.5428C24.2399 24.9603 24.2399 23.3969 24.2399 21.7573C25.4642 23.041 26.6568 24.2867 27.9128 25.6022C27.9128 24.2803 27.9128 23.0474 27.9128 21.7954C28.0523 21.7954 28.1475 21.7954 28.268 21.7954C28.2617 23.3143 28.2617 24.8396 28.2617 26.4538Z" fill="#D70036"/>
<path d="M90.8884 21.789C91.0089 21.789 91.1041 21.789 91.2437 21.789C91.2437 22.5135 91.2437 23.2126 91.2437 23.9371C92.3094 23.9371 93.337 23.9371 94.4091 23.9371C94.4091 23.2253 94.4091 22.5135 94.4091 21.7827C94.5486 21.7827 94.6501 21.7827 94.7707 21.7827C94.7707 23.3651 94.7707 24.9349 94.7707 26.5173C94.6565 26.5173 94.555 26.5173 94.4154 26.5173C94.4154 25.7801 94.4154 25.0429 94.4154 24.2612C94.13 24.2612 93.8826 24.2612 93.6288 24.2612C92.931 24.2612 92.2333 24.2676 91.5418 24.2548C91.3071 24.2485 91.231 24.3184 91.231 24.5599C91.2437 25.2018 91.2373 25.8437 91.2373 26.511C91.1104 26.5173 91.0153 26.5237 90.8821 26.5364C90.8884 24.9603 90.8884 23.3905 90.8884 21.789Z" fill="#D70036"/>
<path d="M3.14652 33.8241C2.69612 33.8241 2.30917 33.8241 1.89684 33.8241C1.89049 33.697 1.88415 33.6016 1.87781 33.4745C2.29648 33.4745 2.69612 33.4745 3.12749 33.4745C3.14017 33.2521 3.14652 33.0614 3.1592 32.839C3.29876 32.839 3.42563 32.839 3.57788 32.839C3.59056 33.0424 3.59691 33.2394 3.60959 33.4491C4.53575 33.4491 5.44922 33.4491 6.38172 33.4491C6.39441 33.2394 6.40075 33.0424 6.4071 32.8326C6.54665 32.8326 6.66718 32.8326 6.81943 32.8326C6.81943 33.0297 6.81943 33.2203 6.81943 33.4618C7.25079 33.4618 7.65677 33.4618 8.0691 33.4618C8.0691 33.6016 8.0691 33.7033 8.0691 33.8241C7.66312 33.8241 7.27616 33.8241 6.8448 33.8241C6.8448 34.1037 6.8448 34.3643 6.8448 34.6375C5.59512 34.6375 4.38985 34.6375 3.14652 34.6375C3.14652 34.3643 3.14652 34.1164 3.14652 33.8241ZM3.60959 34.3261C4.55478 34.3261 5.45557 34.3261 6.37538 34.3261C6.37538 34.1545 6.37538 34.002 6.37538 33.8495C5.44288 33.8495 4.52941 33.8495 3.60959 33.8495C3.60959 34.0147 3.60959 34.1609 3.60959 34.3261Z" fill="#0D2240"/>
<path d="M12.5226 36.9949C12.3514 36.9949 12.2435 36.9949 12.104 36.9949C12.104 36.175 12.104 35.3679 12.104 34.4909C11.7995 35.1201 11.5267 35.6857 11.2349 36.2767C11.0953 36.1369 11.0065 36.0416 10.905 35.9399C11.4886 35.1582 11.7868 34.2558 12.0405 33.2771C11.6789 33.2771 11.3491 33.2771 11.0002 33.2771C10.9938 33.1372 10.9875 33.0356 10.9812 32.8957C11.3491 32.8957 11.7043 32.8957 12.0976 32.8957C12.0976 32.3682 12.0976 31.8789 12.0976 31.3768C12.2499 31.3768 12.364 31.3768 12.5099 31.3768C12.5099 31.8725 12.5099 32.3555 12.5099 32.8703C12.8462 32.8703 13.1443 32.8703 13.4678 32.8703C13.4678 33.0165 13.4678 33.1245 13.4678 33.2643C13.1697 33.2643 12.8652 33.2643 12.4529 33.2643C12.548 33.4741 12.5734 33.652 12.6812 33.7537C12.9667 34.0333 13.2839 34.2812 13.601 34.5545C13.4298 34.7388 13.3536 34.8341 13.2521 34.9358C13.0174 34.6561 12.8017 34.4019 12.5353 34.0905C12.5226 35.101 12.5226 36.0289 12.5226 36.9949Z" fill="#0D2240"/>
<path d="M122.62 22.3353C122.233 22.1891 121.865 21.9921 121.472 21.9095C120.514 21.7188 119.594 22.2463 119.182 23.1551C118.757 24.0893 119.004 25.1697 119.791 25.8243C120.54 26.4535 121.567 26.4916 122.379 25.9387C122.557 25.818 122.633 25.6845 122.627 25.4684C122.614 25.1189 122.62 24.7757 122.62 24.3944C122.741 24.388 122.842 24.3817 122.982 24.3753C122.982 24.8774 122.988 25.3477 122.975 25.818C122.975 25.8942 122.88 25.9768 122.811 26.0404C122.024 26.7331 120.844 26.8539 119.912 26.3391C118.954 25.8053 118.446 24.7312 118.637 23.6254C118.814 22.5959 119.651 21.776 120.679 21.5854C121.263 21.4773 121.815 21.5663 122.335 21.8332C122.658 21.9921 122.652 21.9985 122.62 22.3353Z" fill="#D70036"/>
<path d="M33.7111 22.3674C33.3431 22.2149 32.9943 22.0052 32.6136 21.9226C31.7192 21.7319 30.9833 22.0624 30.4632 22.7996C29.9303 23.5559 29.8859 24.3757 30.33 25.1955C30.9453 26.3395 32.3662 26.6763 33.432 25.9581C33.5969 25.8501 33.6794 25.7294 33.6667 25.5196C33.6476 25.151 33.6603 24.7824 33.6603 24.4011C33.7999 24.4011 33.9014 24.4011 34.0409 24.4011C34.0409 24.8777 34.0473 25.3544 34.0346 25.8247C34.0346 25.9073 33.9331 26.0026 33.857 26.0662C33.0704 26.7525 31.8841 26.8606 30.958 26.3395C30.0255 25.8183 29.5116 24.7252 29.6956 23.6766C29.8923 22.5835 30.7106 21.7764 31.7636 21.5921C32.3536 21.4904 32.8928 21.5921 33.4193 21.8526C33.692 21.967 33.7872 22.1323 33.7111 22.3674Z" fill="#D70036"/>
<path d="M5.47477 21.789C5.58261 21.789 5.6841 21.789 5.82366 21.789C5.82366 22.0814 5.81732 22.3674 5.82366 22.647C5.84269 23.4795 5.79829 24.3184 5.89344 25.1446C6.02031 26.2123 7.18118 26.7334 8.11368 26.1996C8.63385 25.9072 8.77975 25.3988 8.79244 24.8523C8.81147 23.9625 8.79878 23.0791 8.80513 22.1894C8.80513 22.0623 8.80513 21.9415 8.80513 21.789C8.932 21.7827 9.02715 21.7763 9.11596 21.77C9.14133 21.8081 9.16036 21.8272 9.16036 21.8462C9.14768 22.9965 9.17305 24.1532 9.09693 25.2971C9.03984 26.1487 8.48161 26.6127 7.63157 26.6699C7.5491 26.6762 7.46029 26.6826 7.37783 26.6826C6.17256 26.6953 5.56358 26.1996 5.48111 25.0048C5.41767 23.9435 5.47477 22.8694 5.47477 21.789Z" fill="#D70036"/>
<path d="M37.6635 21.6175C37.6635 22.3484 37.6635 23.0348 37.6635 23.772C37.9933 23.772 38.3105 23.772 38.634 23.772C38.9322 23.772 39.224 23.7783 39.5221 23.772C39.7188 23.7656 39.8012 23.8355 39.7188 24.0707C39.0464 24.0707 38.3676 24.0707 37.6698 24.0707C37.6698 24.8015 37.6698 25.4943 37.6698 26.2124C38.5072 26.2124 39.3255 26.2124 40.1692 26.2124C40.1755 26.3268 40.1819 26.4158 40.1882 26.5175C39.2176 26.5175 38.2724 26.5175 37.3082 26.5175C37.3082 24.7825 37.3082 23.0665 37.3082 21.3188C38.2534 21.3188 39.1923 21.3188 40.1374 21.3188C40.2009 21.5858 40.2009 21.5921 39.9662 21.5985C39.3128 21.6048 38.6531 21.5985 37.9997 21.6048C37.8982 21.6048 37.7903 21.6112 37.6635 21.6175Z" fill="#D70036"/>
<path d="M69.9916 31.7458C70.8607 31.7458 71.7425 31.7458 72.6559 31.7458C72.6559 32.4132 72.6559 33.0614 72.6559 33.716C72.6559 34.3452 72.6559 34.3451 73.2966 34.3388C73.4552 34.3388 73.6075 34.3261 73.7851 34.3134C73.7914 34.4405 73.8041 34.5676 73.8105 34.7201C73.3854 34.7201 72.9794 34.7455 72.5861 34.7138C72.2563 34.6883 72.2182 34.4023 72.2182 34.1418C72.2119 33.5889 72.2182 33.0423 72.2182 32.4894C72.2182 32.3877 72.2182 32.2797 72.2182 32.1589C71.6029 32.1589 71.013 32.1589 70.3723 32.1589C70.4801 33.4173 70.239 34.5295 69.0528 35.2476C68.9576 35.1459 68.8752 35.0442 68.7673 34.9235C69.2938 34.5739 69.7379 34.1354 69.8521 33.519C69.9599 32.9534 69.9472 32.356 69.9916 31.7458Z" fill="#0D2240"/>
<path d="M67.0228 26.5293C66.8706 26.5293 66.7754 26.5293 66.6549 26.5293C66.6549 24.9151 66.6549 23.3136 66.6549 21.6739C67.3717 21.6739 68.0949 21.5722 68.799 21.8264C69.4017 22.0425 69.6364 22.4619 69.6237 23.2055C69.611 23.8474 69.3319 24.2732 68.7483 24.4511C68.4692 24.5338 68.171 24.5655 67.8792 24.5846C67.6064 24.6037 67.3337 24.591 67.0228 24.591C67.0228 25.2455 67.0228 25.8747 67.0228 26.5293ZM67.0292 22.0171C67.0292 22.7797 67.0292 23.5169 67.0292 24.2796C67.3527 24.2796 67.6572 24.2796 67.9553 24.2796C68.0822 24.2796 68.2091 24.2732 68.3359 24.2541C68.9259 24.1461 69.2621 23.7266 69.2621 23.1165C69.2558 22.5001 68.9576 22.1061 68.3423 22.0298C67.9173 21.9726 67.4859 22.0171 67.0292 22.0171Z" fill="#D70036"/>
<path d="M81.7025 21.6558C82.616 21.6558 83.5104 21.6558 84.4302 21.6558C84.4366 21.7511 84.4429 21.8401 84.4493 21.9608C83.65 21.9608 82.8697 21.9608 82.0704 21.9608C82.0704 22.6281 82.0704 23.27 82.0704 23.9373C82.7111 23.9373 83.3391 23.9373 83.9862 23.9373C83.9862 24.058 83.9862 24.1407 83.9862 24.2551C83.4343 24.2551 82.8951 24.2678 82.3622 24.2487C82.1085 24.2424 82.0324 24.325 82.0387 24.5728C82.0577 25.1067 82.0451 25.6469 82.0451 26.2188C82.8507 26.2188 83.631 26.2188 84.4239 26.2188C84.4239 26.3396 84.4239 26.4222 84.4239 26.5239C83.5168 26.5239 82.6223 26.5239 81.7025 26.5239C81.7025 24.916 81.7025 23.3018 81.7025 21.6558Z" fill="#D70036"/>
<path d="M52.5398 26.2247C53.3518 26.2247 54.113 26.2247 54.8679 26.2247C54.8933 26.2501 54.9123 26.2755 54.9377 26.301C54.8742 26.3772 54.8108 26.5234 54.7474 26.5297C53.9037 26.5425 53.06 26.5425 52.1909 26.5425C52.1909 24.9092 52.1909 23.2949 52.1909 21.6425C52.6032 21.6425 53.0029 21.6425 53.3962 21.6425C53.8212 21.6425 54.2399 21.6489 54.6649 21.6425C54.8806 21.6362 54.9567 21.7188 54.8742 21.9603C54.1194 21.9603 53.3518 21.9603 52.5588 21.9603C52.5588 22.6276 52.5588 23.2695 52.5588 23.9368C53.1805 23.9368 53.7958 23.9368 54.4048 23.9368C54.4809 24.2482 54.4809 24.2546 54.2145 24.2546C53.7387 24.2609 53.263 24.2482 52.7872 24.2609C52.6984 24.2609 52.5462 24.3562 52.5462 24.4071C52.5335 24.9981 52.5398 25.5892 52.5398 26.2247Z" fill="#D70036"/>
<path d="M73.6647 26.3395C73.5886 26.403 73.5125 26.5301 73.4363 26.5301C72.6053 26.5429 71.768 26.5365 70.9053 26.5365C70.9053 24.9032 70.9053 23.2953 70.9053 21.6366C71.2478 21.6366 71.5777 21.6366 71.9139 21.6366C72.4024 21.6366 72.8845 21.6429 73.3729 21.6366C73.5822 21.6302 73.6711 21.7065 73.5949 21.9544C72.8337 21.9544 72.0598 21.9544 71.2669 21.9544C71.2669 22.6344 71.2669 23.2699 71.2669 23.9436C71.8314 23.9436 72.377 23.9499 72.9289 23.9436C73.1319 23.9372 73.2397 23.988 73.1509 24.2486C72.5483 24.2486 71.9266 24.2486 71.2795 24.2486C71.2795 24.9159 71.2795 25.5578 71.2795 26.2251C72.0535 26.2251 72.821 26.2251 73.5823 26.2251C73.6076 26.2632 73.633 26.3014 73.6647 26.3395Z" fill="#D70036"/>
<path d="M89.4481 22.3289C88.1858 21.6362 87.1391 21.7506 86.3969 22.6531C85.6991 23.4983 85.6991 24.7249 86.3969 25.5383C87.1772 26.4472 88.2048 26.5552 89.4481 25.8434C89.5306 26.0913 89.4672 26.2501 89.2261 26.3709C87.8749 27.0445 86.3018 26.4789 85.6991 25.1062C85.1092 23.7589 85.7752 22.2018 87.1772 21.6871C87.8749 21.4265 88.5601 21.5091 89.2325 21.8332C89.4481 21.9413 89.5306 22.0747 89.4481 22.3289Z" fill="#D70036"/>
<path d="M48.8729 26.5107C48.1752 24.9028 47.5027 23.3648 46.8303 21.8205C47.1158 21.7061 47.2553 21.7824 47.3632 22.0429C47.8009 23.117 48.2513 24.1847 48.7017 25.2587C48.7461 25.3667 48.7968 25.4621 48.8793 25.6337C49.0506 25.2333 49.1965 24.8901 49.3424 24.5469C49.6976 23.708 50.0528 22.8755 50.389 22.0366C50.4905 21.7887 50.6301 21.7188 50.9156 21.8078C50.2495 23.3521 49.5771 24.8901 48.8729 26.5107Z" fill="#D70036"/>
<path d="M117.387 35.4255C117.234 35.5781 117.12 35.6925 116.993 35.8196C116.251 35.273 115.705 34.5803 115.268 33.8049C115.014 33.3601 114.779 32.8898 114.602 32.4068C114.494 32.1144 114.361 32.0509 114.082 32.0572C113.587 32.0763 113.092 32.0636 112.572 32.0636C112.572 31.9111 112.572 31.784 112.572 31.5997C113.06 31.5997 113.555 31.5997 114.043 31.5997C114.779 31.5997 114.773 31.5997 115.052 32.2733C115.541 33.4745 116.226 34.5422 117.266 35.3493C117.298 35.3747 117.336 35.3938 117.387 35.4255Z" fill="#0D2240"/>
<path d="M124.035 21.757C124.352 21.6616 124.511 21.776 124.663 22.0175C125.063 22.6594 125.494 23.2822 125.944 23.9495C126.388 23.2759 126.82 22.6467 127.226 21.9985C127.365 21.776 127.505 21.6299 127.816 21.7633C127.759 21.8523 127.702 21.9603 127.632 22.0557C127.188 22.723 126.731 23.3839 126.3 24.0576C126.192 24.2228 126.135 24.4452 126.128 24.6422C126.109 25.2524 126.122 25.8625 126.122 26.498C125.989 26.498 125.881 26.498 125.735 26.498C125.735 25.9324 125.716 25.3667 125.741 24.8011C125.754 24.4579 125.672 24.1783 125.469 23.8923C124.987 23.206 124.523 22.4878 124.035 21.757Z" fill="#D70036"/>
<path d="M76.4943 21.3442C77.7439 21.3442 78.9619 21.3442 80.1862 21.3442C80.2623 21.5476 80.2052 21.6366 79.9959 21.6302C79.6153 21.6239 79.2347 21.6429 78.8541 21.6239C78.6003 21.6112 78.5305 21.7001 78.5305 21.948C78.5432 23.3334 78.5369 24.7189 78.5369 26.1043C78.5369 26.2378 78.5369 26.3776 78.5369 26.5238C78.41 26.5301 78.3148 26.5365 78.188 26.5365C78.188 24.9095 78.188 23.2953 78.188 21.6302C77.6742 21.6302 77.192 21.6366 76.7099 21.6302C76.4879 21.6302 76.4879 21.6175 76.4943 21.3442Z" fill="#D70036"/>
<path d="M17.1409 38.3102C17.5342 38.3356 17.604 38.539 17.5532 38.8631C17.4391 39.6003 17.2741 39.7465 16.5192 39.7465C15.72 39.7465 14.9143 39.7529 14.115 39.7465C13.4109 39.7402 13.2587 39.5813 13.2587 38.8885C13.2587 38.3738 13.2587 37.8526 13.2587 37.3124C13.4046 37.3124 13.5314 37.3124 13.7027 37.3124C13.7027 37.8272 13.7027 38.342 13.7027 38.8568C13.7027 39.2572 13.7281 39.3016 14.1277 39.3143C14.927 39.3398 15.7326 39.3461 16.5319 39.3398C16.9696 39.3334 17.0775 39.2063 17.1219 38.7678C17.1282 38.6153 17.1282 38.4691 17.1409 38.3102Z" fill="#0D2240"/>
<path d="M1.61133 35.342C1.61133 35.2276 1.61133 35.1259 1.61133 35.0052C3.92038 35.0052 6.22943 35.0052 8.54482 35.0052C8.54482 35.1196 8.54482 35.2213 8.54482 35.342C6.23577 35.342 3.92672 35.342 1.61133 35.342Z" fill="#0D2240"/>
<path d="M111.1 26.5237C110.193 26.5237 109.305 26.5237 108.385 26.5237C108.385 24.9412 108.385 23.3778 108.385 21.7827C108.493 21.7763 108.594 21.7763 108.727 21.77C108.727 23.2571 108.727 24.7188 108.727 26.2314C109.133 26.2314 109.508 26.2314 109.882 26.2314C110.218 26.2314 110.554 26.2377 110.897 26.2314C111.1 26.225 111.17 26.2949 111.1 26.5237Z" fill="#D70036"/>
<path d="M56.5427 21.7887C56.5427 23.2631 56.5427 24.7248 56.5427 26.2183C57.3484 26.2183 58.1286 26.2183 58.9279 26.2183C58.9343 26.3327 58.9406 26.4153 58.9533 26.5234C58.0271 26.5234 57.1264 26.5234 56.2065 26.5234C56.2065 24.9409 56.2065 23.3775 56.2065 21.7887C56.3144 21.7887 56.4159 21.7887 56.5427 21.7887Z" fill="#D70036"/>
<path d="M13.1127 21.8146C13.1127 23.2636 13.1127 24.7189 13.1127 26.2124C13.912 26.2124 14.6922 26.2124 15.4915 26.2124C15.5042 26.3332 15.5169 26.4158 15.5296 26.5238C14.6098 26.5238 13.7153 26.5238 12.7892 26.5238C12.7828 26.4348 12.7638 26.3459 12.7638 26.2569C12.7638 24.8587 12.7638 23.4669 12.7574 22.0688C12.7574 21.8146 12.8272 21.7065 13.1127 21.8146Z" fill="#D70036"/>
<path d="M120.159 34.0146C120.159 33.8812 120.159 33.7604 120.159 33.6206C122.062 33.6206 123.946 33.6206 125.849 33.6206C125.849 33.7541 125.849 33.8748 125.849 34.0146C123.959 34.0146 122.062 34.0146 120.159 34.0146Z" fill="#0D2240"/>
<path d="M82.9078 31.7264C83.1932 32.9466 83.6373 34.0715 84.6015 34.9485C84.5571 35.012 84.5064 35.0756 84.462 35.1392C84.4112 35.2091 84.3605 35.2726 84.297 35.3616C83.7705 34.9294 83.4089 34.3765 83.1362 33.7791C82.9332 33.3343 82.7746 32.8576 82.6223 32.3873C82.5589 32.1967 82.4764 32.1395 82.2861 32.1522C81.9689 32.1649 81.6581 32.1585 81.3219 32.1585C81.3219 32.006 81.3219 31.8853 81.3219 31.7391C81.8421 31.7264 82.3622 31.7264 82.9078 31.7264Z" fill="#0D2240"/>
<path d="M109.165 35.8005C109.026 35.6734 108.911 35.5717 108.829 35.5018C109.336 34.8981 109.876 34.3324 110.32 33.6969C110.757 33.0741 111.1 32.3814 111.499 31.695C111.601 31.7268 111.741 31.7713 111.912 31.8285C111.258 33.3347 110.383 34.6629 109.165 35.8005Z" fill="#0D2240"/>
<path d="M22.267 21.7887C22.3812 21.7887 22.4763 21.7887 22.5905 21.7887C22.5905 23.3712 22.5905 24.9409 22.5905 26.5234C22.4826 26.5234 22.3875 26.5234 22.267 26.5234C22.267 24.9536 22.267 23.3902 22.267 21.7887Z" fill="#D70036"/>
<path d="M11.1271 26.5297C11.0066 26.5297 10.9114 26.5297 10.7972 26.5297C10.7972 24.9536 10.7972 23.3839 10.7972 21.7887C10.8987 21.7824 11.0002 21.776 11.1271 21.776C11.1271 23.3648 11.1271 24.9282 11.1271 26.5297Z" fill="#D70036"/>
<path d="M79.0191 35.3751C78.8985 35.2417 78.797 35.1336 78.6892 35.0129C79.609 34.1549 80.1482 33.0682 80.4971 31.8543C80.643 31.8861 80.7762 31.9115 80.9348 31.9496C80.5796 33.2588 79.996 34.4028 79.0191 35.3751Z" fill="#0D2240"/>
<path d="M32.8865 38.736C32.6264 38.4881 32.6137 38.2784 32.7596 37.9543C33.0895 37.2171 33.3305 36.4417 33.616 35.6664C33.6668 35.6791 33.7619 35.7045 33.8888 35.7363C33.6794 36.7913 33.394 37.7954 32.8865 38.736Z" fill="#0D2240"/>
<path d="M1.23071 39.651C2.09343 39.2887 2.84197 38.9583 3.60954 38.6659C3.73641 38.6151 3.93306 38.7549 4.09799 38.8057C4.09799 38.8439 4.09799 38.882 4.09799 38.9201C3.28602 39.2506 2.48039 39.5874 1.66207 39.8925C1.57961 39.9179 1.42102 39.759 1.23071 39.651Z" fill="#0D2240"/>
<path d="M5.81104 38.8883C5.87447 38.6087 6.02037 38.5769 6.25508 38.6722C6.97825 38.9773 7.7141 39.2633 8.48167 39.5683C8.38651 39.7209 8.31673 39.8225 8.2533 39.9306C7.42864 39.581 6.62935 39.2379 5.81104 38.8883Z" fill="#0D2240"/>
<path d="M49.6532 35.7807C49.5136 35.9396 49.4312 36.0286 49.3551 36.1112C48.7588 35.6536 48.1752 35.2151 47.5852 34.7639C47.7057 34.5224 47.8643 34.497 48.099 34.6685C48.5938 35.0371 49.1013 35.393 49.6532 35.7807Z" fill="#0D2240"/>
<path d="M17.8579 37.4011C18.1243 37.1914 18.2829 37.2549 18.4225 37.5219C18.6826 38.0176 18.968 38.4942 19.2535 39.0026C19.0949 39.0789 18.9744 39.1361 18.8348 39.1996C18.4986 38.5895 18.1814 37.9985 17.8579 37.4011Z" fill="#0D2240"/>
<path d="M11.5141 39.4663C11.3112 39.3519 11.1906 39.2884 11.1145 39.2439C11.4063 38.6084 11.6918 37.9983 11.9836 37.3564C12.066 37.3882 12.1802 37.439 12.3642 37.5153C12.0787 38.1699 11.8059 38.799 11.5141 39.4663Z" fill="#0D2240"/>
<path d="M35.2084 35.641C35.5129 36.2638 35.8301 36.8739 36.1028 37.5095C36.1472 37.6048 35.9633 37.8018 35.8491 38.0052C35.5319 37.2616 35.2465 36.6197 34.9927 35.9651C34.961 35.8762 35.0561 35.7427 35.0879 35.6283C35.1323 35.6347 35.1703 35.6347 35.2084 35.641Z" fill="#0D2240"/>
<path d="M47.9469 32.3114C48.0294 32.2351 48.1118 32.1525 48.245 32.0254C48.7779 32.4321 49.3044 32.8389 49.8563 33.271C49.7167 33.4235 49.6279 33.5189 49.5518 33.6078C49.0126 33.1757 48.4924 32.7562 47.9469 32.3114Z" fill="#0D2240"/>
<path d="M35.8363 31.9686C35.9696 32.0067 36.0837 32.0448 36.2487 32.0893C35.9886 32.782 35.7348 33.4621 35.4748 34.1548C35.3415 34.1166 35.2464 34.0849 35.1385 34.0531C35.3796 33.3604 35.6016 32.6867 35.8363 31.9686Z" fill="#0D2240"/>
<path d="M37.156 32.4127C37.2321 32.3174 37.3019 32.2284 37.4097 32.0886C37.9172 32.4763 38.4057 32.8576 38.9195 33.2516C38.8053 33.4232 38.7292 33.5313 38.6721 33.6139C38.1646 33.2072 37.6698 32.8195 37.156 32.4127Z" fill="#0D2240"/>
<path d="M33.4194 34.0973C33.2291 33.4109 33.0452 32.7563 32.8549 32.0826C33.0325 31.9492 33.1911 31.9365 33.2735 32.2161C33.4511 32.8008 33.6224 33.3791 33.8064 33.9892C33.6351 34.0401 33.5209 34.0718 33.4194 34.0973Z" fill="#0D2240"/>
<path d="M38.4627 35.5077C38.3612 35.6793 38.2914 35.7937 38.228 35.889C37.6951 35.5204 37.1813 35.1646 36.6421 34.7896C36.6865 34.7133 36.7436 34.618 36.8451 34.4528C37.3906 34.8087 37.9171 35.1518 38.4627 35.5077Z" fill="#0D2240"/>
<path d="M16.3607 37.9478C16.1451 38.1003 16.0499 38.1638 15.9548 38.2274C15.6059 37.8524 15.2633 37.4838 14.8954 37.0962C14.9905 37.0326 15.092 36.9691 15.1682 36.9182C15.5678 37.255 15.9484 37.5855 16.3607 37.9478Z" fill="#0D2240"/>
</g>
<defs>
<clipPath id="clip0_7616_108262">
<rect width="128" height="40" fill="white"/>
</clipPath>
</defs>
</svg>
